<?xml version="1.0" ?><!DOCTYPE svg  PUBLIC '-//W3C//DTD SVG 1.1//EN'  'http://www.w3.org/Graphics/SVG/1.1/DTD/svg11.dtd'><svg enable-background="new 0 0 64 64" height="64px" id="Layer_1" version="1.1" viewBox="0 0 64 64" width="64px" xml:space="preserve" xmlns="http://www.w3.org/2000/svg" xmlns:xlink="http://www.w3.org/1999/xlink"><g><g><path d="M61.763,7.078c-2.5,1.516-5.261,2.62-8.213,3.213c-2.351-2.577-5.713-4.184-9.434-4.184    c-7.133,0-12.92,5.934-12.92,13.252c0,1.04,0.111,2.046,0.334,3.018C20.786,21.823,11.267,16.552,4.887,8.524    c-1.113,1.964-1.75,4.244-1.75,6.672c0,4.597,2.266,8.652,5.735,11.029C6.756,26.161,5,25.558,3,24.572v0.165    C3,31.16,7.47,36.518,13.388,37.73c-1.085,0.312-2.22,0.467-3.399,0.467c-0.831,0-1.643-0.08-2.428-0.234    c1.646,5.262,6.418,9.097,12.076,9.199c-4.421,3.557-9.999,5.677-16.052,5.677c-1.04,0-2.074-0.06-3.084-0.184    c5.722,3.754,12.519,5.95,19.814,5.95c23.777,0,36.776-20.19,36.776-37.707c0-0.574-0.013-1.152-0.033-1.717    c2.524-1.869,4.718-4.2,6.444-6.858c-2.314,1.053-4.808,1.767-7.423,2.086C58.749,12.768,60.799,10.17,61.763,7.078z" fill="#24A9E6" id="Twitter"/><path d="M61.763,7.078c-2.5,1.516-5.261,2.62-8.213,3.213c-2.351-2.577-5.713-4.184-9.434-4.184    c-7.133,0-12.92,5.934-12.92,13.252c0,1.04,0.111,2.046,0.334,3.018C20.786,21.823,11.267,16.552,4.887,8.524    c-1.113,1.964-1.75,4.244-1.75,6.672c0,4.597,2.266,8.652,5.735,11.029C6.756,26.161,5,25.558,3,24.572v0.165    C3,31.16,7.47,36.518,13.388,37.73c-1.085,0.312-2.22,0.467-3.399,0.467c-0.831,0-1.643-0.08-2.428-0.234    c1.646,5.262,6.418,9.097,12.076,9.199c-4.421,3.557-9.999,5.677-16.052,5.677c-1.04,0-2.074-0.06-3.084-0.184    c5.722,3.754,12.519,5.95,19.814,5.95c23.777,0,36.776-20.19,36.776-37.707c0-0.574-0.013-1.152-0.033-1.717    c2.524-1.869,4.718-4.2,6.444-6.858c-2.314,1.053-4.808,1.767-7.423,2.086C58.749,12.768,60.799,10.17,61.763,7.078z" fill="#24A9E6" id="Twitter_1_"/><path d="M63.5,12.322c-2.314,1.053-4.808,1.767-7.423,2.086c2.672-1.64,4.723-4.238,5.686-7.331    c-2.5,1.516-5.261,2.62-8.213,3.213c-2.351-2.577-5.713-4.184-9.434-4.184c-7.133,0-12.92,5.934-12.92,13.252    c0,1.04,0.111,2.046,0.334,3.018c-0.007,0-0.015-0.002-0.015-0.002L50.943,41.81c4.046-6.416,6.146-13.879,6.146-20.912    c0-0.574-0.013-1.152-0.033-1.717C59.58,17.312,61.774,14.98,63.5,12.322z" fill="#169FDB"/><g><path d="M19.625,47.171c-4.42,3.551-9.994,5.667-16.041,5.667c-1.04,0-2.074-0.06-3.085-0.184     c5.722,3.754,12.519,5.95,19.814,5.95c3.412,0,6.594-0.426,9.555-1.191L19.625,47.171z" fill="#169FDB"/></g><g><path d="M61.763,7.078c-2.5,1.516-5.261,2.62-8.213,3.213c-2.351-2.577-5.713-4.184-9.434-4.184     c-7.133,0-12.92,5.934-12.92,13.252c0,1.04,0.111,2.046,0.334,3.018c-8.843-0.455-16.854-4.113-22.969-9.867     c6.28,6.633,14.898,10.902,24.5,11.397c-0.223-0.971-0.334-1.978-0.334-3.016c0-7.32,5.787-13.254,12.921-13.254     c3.72,0,7.082,1.608,9.433,4.184" fill="#3DC8F9"/><path d="M11.65,38.089c-0.542,0.071-1.094,0.108-1.654,0.108c-0.831,0-1.647-0.08-2.433-0.234     c0.763,2.436,2.2,4.559,4.079,6.155c-1.13-1.336-2.008-2.902-2.547-4.625" fill="#3DC8F9"/><path d="M61.303,15.202c0.791-0.914,1.538-1.863,2.197-2.88c-0.942,0.429-1.923,0.786-2.922,1.099" fill="#24A9E6"/><path d="M1.796,53.072c-0.271-0.035-0.702-0.087-0.997-0.223c0.862,0.559,1.593,1.002,2.5,1.49     c0.602,0.042,1.208,0.204,1.817,0.204c6.053,0,11.63-2.543,16.053-5.543c-0.008,0-0.014,0-0.021,0     C15.351,52,8.862,53.967,1.796,53.072z" fill="#3DC8F9"/><path d="M7.856,25.421c-1.979-2.33-3.188-5.365-3.188-8.694c0-2.36,0.606-4.577,1.662-6.502     c-0.496-0.554-0.98-1.118-1.443-1.7c-1.113,1.964-1.75,4.244-1.75,6.672C3.137,19.314,4.978,22.991,7.856,25.421z" fill="#3DC8F9"/><path d="M8.872,26.225C6.871,26.112,5,25.509,3,24.572v0.165c0,4.117,1.833,7.79,4.704,10.218     C5.73,32.629,5,29.594,5,26.268V26" fill="#3DC8F9"/></g></g><path d="M26.896,15.793c0,0,1.957-5.994-8.929-9.052c0,0,0.923,4.925,3.731,7.339   C24.756,16.71,26.896,15.793,26.896,15.793z" fill="#3DC8F9"/><path d="M29.121,13.369c0,0,2.261-1.32-0.273-5.275c0,0-1.074,1.784-0.87,3.309   C28.202,13.062,29.121,13.369,29.121,13.369z" fill="#3DC8F9"/><path d="M19.576,16.45c0,0-2.383,1.089-4.159-3.259c0,0,2.076,0.149,3.207,1.193   C19.853,15.523,19.576,16.45,19.576,16.45z" fill="#3DC8F9"/><path d="M29.614,20.863c0,0-2.451,0.927-3.931-3.531c0,0,2.062,0.288,3.119,1.405   C29.952,19.957,29.614,20.863,29.614,20.863z" fill="#24A9E6"/><circle cx="23.288" cy="17.994" fill="#24A9E6" r="0.979"/><circle cx="17.05" cy="10.533" fill="#24A9E6" r="0.367"/><circle cx="24.817" cy="5.579" fill="#24A9E6" r="0.184"/><circle cx="25.551" cy="8.392" fill="#3DC8F9" r="0.673"/></g></svg>