<?xml version="1.0" encoding="UTF-8"?>
<!DOCTYPE svg PUBLIC "-//W3C//DTD SVG 1.1//EN" "http://www.w3.org/Graphics/SVG/1.1/DTD/svg11.dtd">
<!-- Creator: CorelDRAW -->
<svg xmlns="http://www.w3.org/2000/svg" xml:space="preserve" width="76.3329mm" height="53.8684mm" style="shape-rendering:geometricPrecision; text-rendering:geometricPrecision; image-rendering:optimizeQuality; fill-rule:evenodd; clip-rule:evenodd"
viewBox="0 0 28.1499 19.8655"
 xmlns:xlink="http://www.w3.org/1999/xlink">
 <defs>
  <style type="text/css">
   <![CDATA[
    .fil3 {fill:#F2DB01}
    .fil2 {fill:#FDF46B}
    .fil0 {fill:#FEED01}
    .fil1 {fill:black;fill-rule:nonzero}
   ]]>
  </style>
 </defs>
 <g id="Слой_x0020_1">
  <metadata id="CorelCorpID_0Corel-Layer"/>
  <g id="_87036048">
   <rect id="_87126400" class="fil0" y="13.8967" width="28.1499" height="5.96875"/>
   <path id="_86868120" class="fil1" d="M11.069 18.5429l-1.29367 -2.96096 0.891337 0 0.604538 1.5114 0.175391 0.504452c0.0464292,-0.128519 0.0763371,-0.213191 0.0876955,-0.254125 0.0288753,-0.0837495 0.0587833,-0.167536 0.0907932,-0.250327l0.610734 -1.5114 0.873783 0 -1.27612 2.96096 -0.764477 0zm3.53651 -0.942265l0.846973 0.1304c-0.109343,0.286467 -0.280603,0.504452 -0.51581,0.653881 -0.234174,0.150351 -0.528201,0.224623 -0.881011,0.224623 -0.558146,0 -0.970809,-0.167536 -1.23902,-0.504452 -0.211494,-0.269356 -0.317739,-0.61007 -0.317739,-1.0203 0,-0.491139 0.139251,-0.875664 0.417789,-1.15358 0.277543,-0.277911 0.62932,-0.416867 1.05437,-0.416867 0.477642,0 0.854201,0.145594 1.13064,0.436855 0.275477,0.291224 0.4075,0.736671 0.396179,1.33726l-2.12826 0c0.00619548,0.23222 0.0742719,0.413069 0.205299,0.541551 0.13099,0.129441 0.295023,0.194162 0.489996,0.194162 0.133092,0 0.244537,-0.0333007 0.335293,-0.0999389 0.0907932,-0.0675602 0.159902,-0.175133 0.205299,-0.323603zm0.0484943 -0.791878c-0.0061586,-0.227499 -0.0691459,-0.399756 -0.18981,-0.517765 -0.120701,-0.118046 -0.268249,-0.17705 -0.441538,-0.17705 -0.185717,0 -0.338391,0.0628398 -0.459129,0.187524 -0.120701,0.123725 -0.180517,0.293142 -0.178452,0.507291l1.26893 0zm0.654102 1.73414l0 -4.08787 0.849038 0 0 4.08787 -0.849038 0zm3.63656 -2.08533l-0.83768 0.138956c-0.0278428,-0.154223 -0.0917889,-0.270314 -0.191875,-0.348385 -0.10005,-0.0780335 -0.229048,-0.11705 -0.387881,-0.11705 -0.212564,0 -0.38069,0.0675971 -0.506554,0.201795 -0.125864,0.135157 -0.188814,0.360702 -0.188814,0.676708 0,0.351224 0.063983,0.599597 0.191912,0.744268 0.127929,0.144672 0.299153,0.217026 0.514778,0.217026 0.161967,0 0.293031,-0.0418932 0.396142,-0.126602 0.103184,-0.0847084 0.175391,-0.230339 0.21769,-0.435896l0.834619 0.130363c-0.0866629,0.353142 -0.253793,0.62058 -0.499326,0.80047 -0.245533,0.180849 -0.574667,0.270314 -0.988326,0.270314 -0.469381,0 -0.843875,-0.136116 -1.12241,-0.40927 -0.279608,-0.273154 -0.418858,-0.651963 -0.418858,-1.13551 0,-0.488226 0.14032,-0.868952 0.419891,-1.14115 0.280567,-0.273154 0.659191,-0.40927 1.13687,-0.40927 0.391016,0 0.70149,0.0780335 0.932603,0.233179 0.230044,0.155145 0.396142,0.392122 0.497224,0.710046zm-0.435306 0.562498c0,-0.259841 0.0701416,-0.512049 0.208397,-0.7557 0.139288,-0.24273 0.336326,-0.429295 0.591152,-0.556818 0.254826,-0.128482 0.539523,-0.193203 0.854201,-0.193203 0.48487,0 0.883076,0.145594 1.19355,0.436855 0.310548,0.291224 0.465324,0.658638 0.465324,1.10313 0,0.447328 -0.156841,0.81854 -0.469418,1.11356 -0.313609,0.29506 -0.707686,0.441649 -1.18326,0.441649 -0.295096,0 -0.57463,-0.0609222 -0.841847,-0.183725 -0.267217,-0.122766 -0.470414,-0.302656 -0.609701,-0.539633 -0.138255,-0.237014 -0.208397,-0.525362 -0.208397,-0.866113zm0.870722 0.0418563c0,0.294101 0.0753045,0.518724 0.226946,0.674827 0.150646,0.156067 0.337395,0.234137 0.559179,0.234137 0.221783,0 0.4075,-0.0780704 0.557076,-0.234137 0.150609,-0.156104 0.225914,-0.382607 0.225914,-0.680543 0,-0.289343 -0.0753045,-0.513007 -0.225914,-0.669074 -0.149576,-0.156104 -0.335293,-0.234137 -0.557076,-0.234137 -0.221783,0 -0.408533,0.0780335 -0.559179,0.234137 -0.151642,0.156067 -0.226946,0.381649 -0.226946,0.67479zm2.16134 -1.47998l0.783027 0 0 0.403517c0.279534,-0.314088 0.613795,-0.471114 1.00068,-0.471114 0.205262,0 0.383751,0.0390167 0.534397,0.11705 0.151605,0.0780704 0.27544,0.196079 0.372429,0.354064 0.140283,-0.157985 0.292957,-0.275994 0.455957,-0.354064 0.163,-0.0780335 0.337358,-0.11705 0.523038,-0.11705 0.235207,0 0.43538,0.0447328 0.59838,0.13324 0.162963,0.087548 0.284734,0.217948 0.365201,0.388324 0.0587833,0.126602 0.0876586,0.331237 0.0876586,0.613905l0 1.89309 -0.849038 0 0 -1.69229c0,-0.294064 -0.0288753,-0.483468 -0.0876586,-0.569136 -0.0784391,-0.111371 -0.19914,-0.167536 -0.36214,-0.167536 -0.119632,0 -0.231076,0.0333376 -0.336326,0.100898 -0.10418,0.0666382 -0.179484,0.16466 -0.225877,0.294101 -0.0464292,0.129441 -0.0702154,0.333154 -0.0702154,0.612024l0 1.42194 -0.849038 0 0 -1.62281c0,-0.288348 -0.0154149,-0.473954 -0.0453229,-0.557703 -0.0299448,-0.0837864 -0.0774066,-0.145631 -0.140357,-0.186565 -0.0639462,-0.0409344 -0.149576,-0.061881 -0.258956,-0.061881 -0.13099,0 -0.248593,0.0323787 -0.35281,0.0980581 -0.105176,0.0647206 -0.180517,0.158943 -0.225914,0.28171 -0.0453966,0.122766 -0.0680765,0.325521 -0.0680765,0.610107l0 1.43908 -0.849038 0 0 -2.96096z"/>
  </g>
  <g id="_87181224">
   <rect id="_87054408" class="fil2" transform="matrix(0.896198 -0.896195 0.896198 0.896195 12.0889 3.45911)" width="3.85978" height="3.85978"/>
   <rect id="_86611048" class="fil3" transform="matrix(0.896198 -0.896195 0.896198 0.896195 15.5481 6.91823)" width="3.85978" height="3.85978"/>
   <rect id="_86665416" class="fil0" transform="matrix(0.896198 -0.896195 0.896198 0.896195 19.0072 3.45911)" width="3.85978" height="3.85978"/>
  </g>
 </g>
</svg>
